<svg width="237" height="36" viewBox="0 0 237 36" fill="none" xmlns="http://www.w3.org/2000/svg">
<g id="Logo">
<path id="text-0" d="M25.048 26.4615V27.6154H16.2889V26.4615H16.9804C17.3902 26.4615 17.595 26.359 17.595 26.1538C17.595 26.0513 17.3902 25.6923 16.9804 25.0769L9.14328 12.9231L6.45408 15.6154V24.7692C6.45408 25.1538 6.47969 25.4487 6.53091 25.6538C6.58214 25.859 6.74861 26.0436 7.03033 26.2077C7.31206 26.3769 7.73465 26.4615 8.2981 26.4615H9.75795V27.6154H0V26.4615H1.22935C1.7928 26.4615 2.21539 26.3769 2.49711 26.2077C2.77884 26.0436 2.94531 25.859 2.99654 25.6538C3.04776 25.4487 3.07337 25.1538 3.07337 24.7692V3.53846C3.07337 3.15385 3.04776 2.85897 2.99654 2.65385C2.94531 2.44872 2.77884 2.26154 2.49711 2.09231C2.21539 1.92821 1.7928 1.84615 1.22935 1.84615H0V0.692309H9.75795V1.84615H8.2981C7.73465 1.84615 7.31206 1.92821 7.03033 2.09231C6.74861 2.26154 6.58214 2.44872 6.53091 2.65385C6.47969 2.85897 6.45408 3.15385 6.45408 3.53846V13.5385L16.3657 3.84616C16.8779 3.38462 17.134 2.97436 17.134 2.61539C17.134 2.10257 16.7499 1.84615 15.9815 1.84615H15.29V0.692309H22.8966V1.84615H22.2819C21.8209 1.84615 21.155 2.08975 20.2842 2.57692C19.4135 3.0641 18.6707 3.61539 18.0561 4.23077L11.5251 10.6923L20.2074 23.7692C20.5147 24.1795 20.7965 24.5897 21.0526 25C21.8209 25.9744 22.8454 26.4615 24.126 26.4615H25.048ZM37.0341 26.5385V27.6154H27.2762V26.5385H28.5055C29.069 26.5385 29.4916 26.441 29.7733 26.2462C30.055 26.0564 30.2215 25.859 30.2727 25.6538C30.3239 25.4487 30.3495 25.1538 30.3495 24.7692V3.53846C30.3495 2.89744 30.2215 2.44103 29.9654 2.16923C29.7092 1.90256 29.2226 1.76923 28.5055 1.76923H27.2762V0.692309H47.7909L48.1751 6.15385L47.0994 6.30769C47.0482 5.35897 46.6512 4.45385 45.9085 3.59231C45.1657 2.7359 44.1285 2.30769 42.7967 2.30769H35.5743C35.0108 2.30769 34.5882 2.39744 34.3065 2.57692C34.0248 2.75641 33.8583 2.94872 33.8071 3.15385C33.7559 3.35898 33.7302 3.64103 33.7302 4V12.5385H41.1832C41.5673 12.5385 41.8619 12.5128 42.0668 12.4615C42.6046 12.3333 42.8735 11.8462 42.8735 11V9.15385H44.026V17.3846H42.8735V15.6923C42.8735 15.0256 42.7327 14.6026 42.4509 14.4231C42.1692 14.2436 41.7466 14.1538 41.1832 14.1538H33.7302V24.7692C33.7302 25.1538 33.7559 25.4487 33.8071 25.6538C33.8583 25.859 34.0248 26.0564 34.3065 26.2462C34.5882 26.441 35.0108 26.5385 35.5743 26.5385H37.0341ZM50.0191 36L49.1739 34.5385C50.2496 33.8205 51.21 32.9359 52.0552 31.8846C52.9004 30.8333 53.323 29.8718 53.323 29V3.53846C53.323 3.15385 53.2974 2.85897 53.2461 2.65385C53.1949 2.44872 53.0284 2.26154 52.7467 2.09231C52.465 1.92821 52.0424 1.84615 51.479 1.84615H50.2496V0.692309H60.0076V1.84615H58.5477C57.9843 1.84615 57.5617 1.92821 57.2799 2.09231C56.9982 2.26154 56.8317 2.44872 56.7805 2.65385C56.7293 2.85897 56.7037 3.15385 56.7037 3.53846V27.8462C56.7037 30.4872 55.9866 32.3846 54.5523 33.5385C54.0657 33.9231 53.6303 34.2128 53.2461 34.4077C52.862 34.5974 52.3241 34.8538 51.6326 35.1769C50.9411 35.4949 50.4033 35.7692 50.0191 36ZM94.9595 28.2308L77.9791 5.46154V24.7692C77.9791 25.8974 78.773 26.4615 80.361 26.4615H81.8208V27.6154H72.6007V26.4615H73.83C75.4179 26.4615 76.2119 25.8974 76.2119 24.7692V3.53846C76.2119 2.41026 75.4179 1.84615 73.83 1.84615H72.6007V0.692309H78.6706L94.4985 22V3.53846C94.4985 2.41026 93.7301 1.84615 92.1934 1.84615H90.8872V0.692309H100.107V1.84615H98.6475C97.0596 1.84615 96.2656 2.41026 96.2656 3.53846V27.4615C95.9839 27.4615 95.6843 27.5846 95.3667 27.8308C95.044 28.0718 94.9082 28.2051 94.9595 28.2308ZM128.459 26.5385V27.6154H118.624V26.5385H119.854C120.981 26.5385 121.544 26.1795 121.544 25.4615C121.544 25.359 121.416 24.9231 121.16 24.1538L118.548 17.3077H108.866L106.331 23.8462C106.331 23.8974 106.241 24.2103 106.062 24.7846C105.883 25.3641 105.793 25.7615 105.793 25.9769C105.793 26.1974 105.934 26.3462 106.216 26.4231C106.497 26.5 107.099 26.5385 108.021 26.5385H108.636V27.6154H101.106V26.5385H101.644C102.489 26.5385 103.104 26.3897 103.488 26.0923C103.872 25.8 104.205 25.3077 104.487 24.6154L112.939 2.53846C113.067 2.51282 113.297 2.32564 113.63 1.97692C113.963 1.63333 114.27 1.27436 114.552 0.900001C114.834 0.530771 114.975 0.320515 114.975 0.269233C114.975 0.21795 114.962 0.179488 114.936 0.153847L115.474 0L124.925 24.7692C125.207 25.359 125.493 25.8 125.785 26.0923C126.082 26.3897 126.513 26.5385 127.076 26.5385H128.459ZM109.481 15.6923H117.856L113.707 4.69231L109.481 15.6923ZM140.138 26.5385V27.6154H130.38V26.5385H131.686C132.455 26.5385 132.954 26.3846 133.185 26.0769C133.415 25.7692 133.53 25.3333 133.53 24.7692V3.53846C133.53 2.97436 133.415 2.53846 133.185 2.23077C132.954 1.92308 132.455 1.76923 131.686 1.76923H130.38V0.692309H140.138V1.76923H138.678C137.91 1.76923 137.41 1.92308 137.18 2.23077C136.949 2.53846 136.834 2.97436 136.834 3.53846V24.7692C136.834 25.3333 136.949 25.7692 137.18 26.0769C137.41 26.3846 137.91 26.5385 138.678 26.5385H140.138ZM165.101 22.3077L163.795 27.6154H143.204V26.4615H144.51C145.278 26.4615 145.778 26.3205 146.008 26.0385C146.239 25.7564 146.354 25.3333 146.354 24.7692V3.53846C146.354 2.97436 146.239 2.55128 146.008 2.26923C145.778 1.98718 145.278 1.84615 144.51 1.84615H143.204V0.692309H152.962V1.84615H151.502C150.733 1.84615 150.234 1.98718 150.004 2.26923C149.773 2.55128 149.658 2.97436 149.658 3.53846V24.2308C149.658 24.7949 149.773 25.2308 150.004 25.5385C150.234 25.8462 150.733 26 151.502 26H158.801C160.158 26 161.357 25.5564 162.397 24.6692C163.432 23.7872 163.949 22.9231 163.949 22.0769L165.101 22.3077ZM176.934 26.5385V27.6154H167.176V26.5385H168.482C169.251 26.5385 169.75 26.3846 169.98 26.0769C170.211 25.7692 170.326 25.3333 170.326 24.7692V3.53846C170.326 2.97436 170.211 2.53846 169.98 2.23077C169.75 1.92308 169.251 1.76923 168.482 1.76923H167.176V0.692309H176.934V1.76923H175.474C174.706 1.76923 174.206 1.92308 173.976 2.23077C173.745 2.53846 173.63 2.97436 173.63 3.53846V24.7692C173.63 25.3333 173.745 25.7692 173.976 26.0769C174.206 26.3846 174.706 26.5385 175.474 26.5385H176.934ZM202.366 28.2308L185.386 5.46154V24.7692C185.386 25.8974 186.18 26.4615 187.768 26.4615H189.227V27.6154H180.007V26.4615H181.237C182.825 26.4615 183.619 25.8974 183.619 24.7692V3.53846C183.619 2.41026 182.825 1.84615 181.237 1.84615H180.007V0.692309H186.077L201.905 22V3.53846C201.905 2.41026 201.137 1.84615 199.6 1.84615H198.294V0.692309H207.514V1.84615H206.054C204.466 1.84615 203.672 2.41026 203.672 3.53846V27.4615C203.391 27.4615 203.088 27.5846 202.766 27.8308C202.448 28.0718 202.315 28.2051 202.366 28.2308ZM230.487 23.2308V18.4615C230.487 18.1026 230.462 17.8205 230.411 17.6154C230.359 17.4103 230.193 17.2179 229.911 17.0385C229.629 16.859 229.204 16.7692 228.636 16.7692H227.26V15.6923H236.25V16.7692H235.635C234.867 16.7692 234.368 16.9154 234.137 17.2077C233.907 17.5051 233.791 17.9231 233.791 18.4615V22.3846C230.098 26.3846 226.075 28.3846 221.721 28.3846C218.806 28.3846 216.209 27.0897 213.93 24.5C211.65 21.9103 210.511 19 210.511 15.7692C210.511 11.5897 212.052 7.91539 215.136 4.74616C218.225 1.58205 221.828 0 225.947 0C227.483 0 229.56 0.435898 232.178 1.30769L232.408 6.61539H231.025C231.025 4.30769 228.771 3.15385 224.264 3.15385C221.16 3.15385 218.527 4.00513 216.365 5.70769C214.204 7.41539 213.123 9.84615 213.123 13C213.123 14.7692 213.397 16.3846 213.945 17.8462C214.498 19.3077 215.197 20.5 216.043 21.4231C216.883 22.3462 217.83 23.1282 218.885 23.7692C220.832 24.8974 222.714 25.4615 224.533 25.4615C226.351 25.4615 228.336 24.7179 230.487 23.2308Z" fill="#A26C64"/>
</g>
</svg>
