<svg width="210" height="32" viewBox="0 0 210 32" fill="none" xmlns="http://www.w3.org/2000/svg">
<g id="Logo">
<path id="text-0" d="M22.2649 23.5214V24.547H14.479V23.5214H15.0937C15.4579 23.5214 15.64 23.4302 15.64 23.2479C15.64 23.1567 15.4579 22.8376 15.0937 22.2906L8.12736 11.4872L5.73696 13.8803V22.0171C5.73696 22.359 5.75972 22.6211 5.80526 22.8034C5.85079 22.9858 5.99876 23.1499 6.24919 23.2957C6.49961 23.4462 6.87524 23.5214 7.37609 23.5214H8.67373V24.547H0V23.5214H1.09275C1.5936 23.5214 1.96923 23.4462 2.21966 23.2957C2.47008 23.1499 2.61806 22.9858 2.66359 22.8034C2.70912 22.6211 2.73188 22.359 2.73188 22.0171V3.1453C2.73188 2.80342 2.70912 2.54131 2.66359 2.35897C2.61806 2.17664 2.47008 2.01026 2.21966 1.85983C1.96923 1.71396 1.5936 1.64103 1.09275 1.64103H0V0.615386H8.67373V1.64103H7.37609C6.87524 1.64103 6.49961 1.71396 6.24919 1.85983C5.99876 2.01026 5.85079 2.17664 5.80526 2.35897C5.75972 2.54131 5.73696 2.80342 5.73696 3.1453V12.0342L14.5473 3.4188C15.0026 3.00855 15.2303 2.64388 15.2303 2.32479C15.2303 1.86895 14.8888 1.64103 14.2058 1.64103H13.5911V0.615386H20.3525V1.64103H19.8062C19.3964 1.64103 18.8045 1.85755 18.0304 2.2906C17.2564 2.72365 16.5962 3.21368 16.0498 3.76068L10.2446 9.50427L17.9621 21.1282C18.2353 21.4929 18.4858 21.8575 18.7134 22.2222C19.3964 23.0883 20.307 23.5214 21.4453 23.5214H22.2649ZM32.9192 23.5897V24.547H24.2455V23.5897H25.3382C25.8391 23.5897 26.2147 23.5031 26.4651 23.3299C26.7156 23.1613 26.8635 22.9858 26.9091 22.8034C26.9546 22.6211 26.9774 22.359 26.9774 22.0171V3.1453C26.9774 2.5755 26.8635 2.1698 26.6359 1.9282C26.4082 1.69117 25.9757 1.57265 25.3382 1.57265H24.2455V0.615386H42.4808L42.8223 5.47009L41.8661 5.60684C41.8206 4.76353 41.4677 3.95898 40.8075 3.19316C40.1473 2.43191 39.2253 2.05128 38.0415 2.05128H31.6216C31.1207 2.05128 30.7451 2.13106 30.4947 2.2906C30.2442 2.45014 30.0963 2.62108 30.0507 2.80342C30.0052 2.98576 29.9824 3.23647 29.9824 3.55556V11.1453H36.6073C36.9487 11.1453 37.2105 11.1225 37.3927 11.0769C37.8708 10.963 38.1098 10.5299 38.1098 9.77778V8.13675H39.1343V15.453H38.1098V13.9487C38.1098 13.3561 37.9846 12.9801 37.7342 12.8205C37.4837 12.661 37.1081 12.5812 36.6073 12.5812H29.9824V22.0171C29.9824 22.359 30.0052 22.6211 30.0507 22.8034C30.0963 22.9858 30.2442 23.1613 30.4947 23.3299C30.7451 23.5031 31.1207 23.5897 31.6216 23.5897H32.9192ZM44.4614 32L43.7102 30.7009C44.6663 30.0627 45.52 29.2764 46.2713 28.3419C47.0226 27.4074 47.3982 26.5527 47.3982 25.7778V3.1453C47.3982 2.80342 47.3754 2.54131 47.3299 2.35897C47.2844 2.17664 47.1364 2.01026 46.886 1.85983C46.6356 1.71396 46.2599 1.64103 45.7591 1.64103H44.6663V0.615386H53.3401V1.64103H52.0424C51.5416 1.64103 51.1659 1.71396 50.9155 1.85983C50.6651 2.01026 50.5171 2.17664 50.4716 2.35897C50.426 2.54131 50.4033 2.80342 50.4033 3.1453V24.7521C50.4033 27.0997 49.7658 28.7863 48.491 29.812C48.0584 30.1538 47.6714 30.4114 47.3299 30.5846C46.9884 30.7533 46.5103 30.9812 45.8957 31.2684C45.281 31.551 44.8029 31.7949 44.4614 32ZM84.4084 25.094L69.3148 4.8547V22.0171C69.3148 23.0199 70.0205 23.5214 71.432 23.5214H72.7296V24.547H64.534V23.5214H65.6267C67.0382 23.5214 67.7439 23.0199 67.7439 22.0171V3.1453C67.7439 2.14245 67.0382 1.64103 65.6267 1.64103H64.534V0.615386H69.9294L83.9986 19.5556V3.1453C83.9986 2.14245 83.3157 1.64103 81.9497 1.64103H80.7887V0.615386H88.9843V1.64103H87.6867C86.2752 1.64103 85.5695 2.14245 85.5695 3.1453V24.4103C85.319 24.4103 85.0527 24.5197 84.7704 24.7385C84.4835 24.9527 84.3629 25.0712 84.4084 25.094ZM114.186 23.5897V24.547H105.444V23.5897H106.537C107.538 23.5897 108.039 23.2707 108.039 22.6325C108.039 22.5413 107.925 22.1538 107.698 21.4701L105.376 15.3846H96.7702L94.5164 21.1966C94.5164 21.2422 94.4367 21.5202 94.2773 22.0308C94.118 22.5459 94.0383 22.8991 94.0383 23.0906C94.0383 23.2866 94.1635 23.4188 94.4139 23.4872C94.6644 23.5556 95.1994 23.5897 96.0189 23.5897H96.5653V24.547H89.8722V23.5897H90.3503C91.1015 23.5897 91.6479 23.4576 91.9894 23.1932C92.3309 22.9333 92.6268 22.4957 92.8773 21.8803L100.39 2.25641C100.504 2.23362 100.709 2.06724 101.005 1.75726C101.301 1.45185 101.574 1.13276 101.824 0.800001C102.075 0.471796 102.2 0.284902 102.2 0.239318C102.2 0.193734 102.188 0.159545 102.166 0.136753L102.644 0L111.044 22.0171C111.295 22.5413 111.55 22.9333 111.809 23.1932C112.073 23.4576 112.456 23.5897 112.957 23.5897H114.186ZM97.3166 13.9487H104.761L101.073 4.17094L97.3166 13.9487ZM124.567 23.5897V24.547H115.893V23.5897H117.054C117.737 23.5897 118.181 23.453 118.386 23.1795C118.591 22.906 118.694 22.5185 118.694 22.0171V3.1453C118.694 2.64388 118.591 2.25641 118.386 1.98291C118.181 1.7094 117.737 1.57265 117.054 1.57265H115.893V0.615386H124.567V1.57265H123.269C122.587 1.57265 122.143 1.7094 121.938 1.98291C121.733 2.25641 121.63 2.64388 121.63 3.1453V22.0171C121.63 22.5185 121.733 22.906 121.938 23.1795C122.143 23.453 122.587 23.5897 123.269 23.5897H124.567ZM146.757 19.8291L145.596 24.547H127.292V23.5214H128.453C129.136 23.5214 129.58 23.396 129.785 23.1453C129.99 22.8946 130.092 22.5185 130.092 22.0171V3.1453C130.092 2.64388 129.99 2.26781 129.785 2.01709C129.58 1.76638 129.136 1.64103 128.453 1.64103H127.292V0.615386H135.966V1.64103H134.668C133.985 1.64103 133.541 1.76638 133.336 2.01709C133.132 2.26781 133.029 2.64388 133.029 3.1453V21.5385C133.029 22.0399 133.132 22.4273 133.336 22.7009C133.541 22.9744 133.985 23.1111 134.668 23.1111H141.156C142.363 23.1111 143.429 22.7168 144.353 21.9282C145.273 21.1442 145.732 20.3761 145.732 19.6239L146.757 19.8291ZM157.275 23.5897V24.547H148.601V23.5897H149.762C150.445 23.5897 150.889 23.453 151.094 23.1795C151.299 22.906 151.401 22.5185 151.401 22.0171V3.1453C151.401 2.64388 151.299 2.25641 151.094 1.98291C150.889 1.7094 150.445 1.57265 149.762 1.57265H148.601V0.615386H157.275V1.57265H155.977C155.294 1.57265 154.85 1.7094 154.645 1.98291C154.44 2.25641 154.338 2.64388 154.338 3.1453V22.0171C154.338 22.5185 154.44 22.906 154.645 23.1795C154.85 23.453 155.294 23.5897 155.977 23.5897H157.275ZM179.881 25.094L164.787 4.8547V22.0171C164.787 23.0199 165.493 23.5214 166.905 23.5214H168.202V24.547H160.007V23.5214H161.099C162.511 23.5214 163.216 23.0199 163.216 22.0171V3.1453C163.216 2.14245 162.511 1.64103 161.099 1.64103H160.007V0.615386H165.402L179.471 19.5556V3.1453C179.471 2.14245 178.788 1.64103 177.422 1.64103H176.261V0.615386H184.457V1.64103H183.159C181.748 1.64103 181.042 2.14245 181.042 3.1453V24.4103C180.792 24.4103 180.523 24.5197 180.236 24.7385C179.954 24.9527 179.835 25.0712 179.881 25.094ZM204.878 20.6496V16.4103C204.878 16.0912 204.855 15.8405 204.809 15.6581C204.764 15.4758 204.616 15.3048 204.365 15.1453C204.115 14.9858 203.737 14.906 203.232 14.906H202.009V13.9487H210V14.906H209.454C208.771 14.906 208.327 15.0359 208.122 15.2957C207.917 15.5601 207.814 15.9316 207.814 16.4103V19.8974C204.532 23.453 200.955 25.2308 197.085 25.2308C194.494 25.2308 192.186 24.0798 190.16 21.7778C188.134 19.4758 187.12 16.8889 187.12 14.0171C187.12 10.302 188.491 7.0359 191.232 4.2188C193.977 1.40627 197.181 0 200.841 0C202.207 0 204.054 0.387465 206.38 1.16239L206.585 5.88034H205.356C205.356 3.82906 203.352 2.80342 199.346 2.80342C196.586 2.80342 194.246 3.56012 192.325 5.07351C190.403 6.59145 189.443 8.75214 189.443 11.5556C189.443 13.1282 189.686 14.5641 190.173 15.8632C190.665 17.1624 191.287 18.2222 192.038 19.0427C192.785 19.8632 193.627 20.5584 194.565 21.1282C196.295 22.1311 197.968 22.6325 199.585 22.6325C201.201 22.6325 202.965 21.9715 204.878 20.6496Z" fill="#A26C64"/>
</g>
</svg>
