<svg width="24" height="24" viewBox="0 0 24 24" fill="none" xmlns="http://www.w3.org/2000/svg">
<g id="Icons=icons8-line (1) 1">
<path id="Vector" d="M4.31992 1.91992C2.99512 1.91992 1.91992 2.99512 1.91992 4.31992V19.6799C1.91992 21.0047 2.99512 22.0799 4.31992 22.0799H19.6799C21.0047 22.0799 22.0799 21.0047 22.0799 19.6799V4.31992C22.0799 2.99512 21.0047 1.91992 19.6799 1.91992H4.31992ZM11.9999 5.27992C15.9695 5.27992 19.1999 7.85235 19.1999 11.0155C19.1999 12.2779 18.7004 13.4211 17.654 14.5443C16.9004 15.3987 15.677 16.3392 14.549 17.1168C13.421 17.8848 12.3839 18.4893 11.9999 18.6477C11.8463 18.7101 11.7311 18.7387 11.6399 18.7387C11.3231 18.7387 11.3515 18.4035 11.3755 18.2643C11.3947 18.1587 11.4815 17.6587 11.4815 17.6587C11.5055 17.4811 11.5291 17.1988 11.4571 17.0212C11.3755 16.8244 11.0539 16.7232 10.8187 16.6752C7.36267 16.224 4.79992 13.8475 4.79992 11.0155C4.79992 7.85235 8.03032 5.27992 11.9999 5.27992ZM11.5162 9.11898C11.2743 9.12347 11.0399 9.30802 11.0399 9.59992V12.4799C11.0399 12.7449 11.255 12.9599 11.5199 12.9599C11.7849 12.9599 11.9999 12.7449 11.9999 12.4799V11.098L13.049 12.7584C13.3207 13.1385 13.9199 12.947 13.9199 12.4799V9.59992C13.9199 9.33496 13.7049 9.11992 13.4399 9.11992C13.175 9.11992 12.9599 9.33496 12.9599 9.59992V11.0399L11.9109 9.32148C11.809 9.17892 11.6613 9.11629 11.5162 9.11898ZM7.19992 9.11992C6.93496 9.11992 6.71992 9.33496 6.71992 9.59992V12.4799C6.71992 12.7449 6.93496 12.9599 7.19992 12.9599H8.63992C8.90488 12.9599 9.11992 12.7449 9.11992 12.4799C9.11992 12.215 8.90488 11.9999 8.63992 11.9999H7.67992V9.59992C7.67992 9.33496 7.46488 9.11992 7.19992 9.11992ZM10.0799 9.11992C9.81496 9.11992 9.59992 9.33496 9.59992 9.59992V12.4799C9.59992 12.7449 9.81496 12.9599 10.0799 12.9599C10.3449 12.9599 10.5599 12.7449 10.5599 12.4799V9.59992C10.5599 9.33496 10.3449 9.11992 10.0799 9.11992ZM14.8799 9.11992C14.615 9.11992 14.3999 9.33496 14.3999 9.59992V12.4799C14.3999 12.7449 14.615 12.9599 14.8799 12.9599H16.3199C16.5849 12.9599 16.7999 12.7449 16.7999 12.4799C16.7999 12.215 16.5849 11.9999 16.3199 11.9999H15.3599V11.5199H16.3199C16.5854 11.5199 16.7999 11.3049 16.7999 11.0399C16.7999 10.775 16.5854 10.5599 16.3199 10.5599H15.3599V10.0799H16.3199C16.5849 10.0799 16.7999 9.86488 16.7999 9.59992C16.7999 9.33496 16.5849 9.11992 16.3199 9.11992H14.8799Z" fill="white"/>
</g>
</svg>
