<svg width="158" height="24" viewBox="0 0 158 24" fill="none" xmlns="http://www.w3.org/2000/svg">
<g id="Frame 26">
<path id="text-0" d="M16.7517 17.641V18.4103H10.8937V17.641H11.3562C11.6302 17.641 11.7673 17.5726 11.7673 17.4359C11.7673 17.3675 11.6302 17.1282 11.3562 16.7179L6.11487 8.61539L4.31638 10.4103V16.5128C4.31638 16.7692 4.33351 16.9658 4.36776 17.1026C4.40202 17.2393 4.51336 17.3624 4.70177 17.4718C4.89018 17.5846 5.1728 17.641 5.54963 17.641H6.52595V18.4103H0V17.641H0.822167C1.19899 17.641 1.48161 17.5846 1.67003 17.4718C1.85844 17.3624 1.96978 17.2393 2.00403 17.1026C2.03829 16.9658 2.05542 16.7692 2.05542 16.5128V2.35898C2.05542 2.10257 2.03829 1.90598 2.00403 1.76923C1.96978 1.63248 1.85844 1.50769 1.67003 1.39487C1.48161 1.28547 1.19899 1.23077 0.822167 1.23077H0V0.461539H6.52595V1.23077H5.54963C5.1728 1.23077 4.89018 1.28547 4.70177 1.39487C4.51336 1.50769 4.40202 1.63248 4.36776 1.76923C4.33351 1.90598 4.31638 2.10257 4.31638 2.35898V9.02564L10.9451 2.5641C11.2877 2.25641 11.459 1.98291 11.459 1.74359C11.459 1.40171 11.202 1.23077 10.6882 1.23077H10.2257V0.461539H15.3129V1.23077H14.9018C14.5935 1.23077 14.1481 1.39316 13.5658 1.71795C12.9834 2.04274 12.4867 2.41026 12.0756 2.82051L7.70782 7.12821L13.5144 15.8462C13.7199 16.1197 13.9083 16.3932 14.0796 16.6667C14.5935 17.3162 15.2786 17.641 16.135 17.641H16.7517ZM24.7678 17.6923V18.4103H18.2418V17.6923H19.064C19.4408 17.6923 19.7235 17.6273 19.9119 17.4974C20.1003 17.3709 20.2116 17.2393 20.2459 17.1026C20.2801 16.9658 20.2973 16.7692 20.2973 16.5128V2.35898C20.2973 1.93163 20.2116 1.62735 20.0403 1.44615C19.869 1.26838 19.5436 1.17949 19.064 1.17949H18.2418V0.461539H31.9618L32.2187 4.10256L31.4993 4.20513C31.465 3.57265 31.1995 2.96923 30.7028 2.39487C30.2061 1.82393 29.5124 1.53846 28.6217 1.53846H23.7915C23.4146 1.53846 23.132 1.59829 22.9436 1.71795C22.7552 1.83761 22.6439 1.96581 22.6096 2.10257C22.5753 2.23932 22.5582 2.42735 22.5582 2.66667V8.35897H27.5426C27.7995 8.35897 27.9965 8.34188 28.1335 8.30769C28.4932 8.22222 28.6731 7.89744 28.6731 7.33333V6.10256H29.4439V11.5897H28.6731V10.4615C28.6731 10.0171 28.5789 9.73504 28.3905 9.61539C28.2021 9.49573 27.9194 9.4359 27.5426 9.4359H22.5582V16.5128C22.5582 16.7692 22.5753 16.9658 22.6096 17.1026C22.6439 17.2393 22.7552 17.3709 22.9436 17.4974C23.132 17.6273 23.4146 17.6923 23.7915 17.6923H24.7678ZM33.4519 24L32.8867 23.0256C33.6061 22.547 34.2484 21.9573 34.8136 21.2564C35.3789 20.5556 35.6615 19.9145 35.6615 19.3333V2.35898C35.6615 2.10257 35.6444 1.90598 35.6101 1.76923C35.5759 1.63248 35.4645 1.50769 35.2761 1.39487C35.0877 1.28547 34.8051 1.23077 34.4283 1.23077H33.6061V0.461539H40.132V1.23077H39.1557C38.7789 1.23077 38.4963 1.28547 38.3079 1.39487C38.1194 1.50769 38.0081 1.63248 37.9739 1.76923C37.9396 1.90598 37.9225 2.10257 37.9225 2.35898V18.5641C37.9225 20.3248 37.4429 21.5897 36.4837 22.359C36.1582 22.6154 35.8671 22.8085 35.6101 22.9385C35.3532 23.065 34.9935 23.2359 34.531 23.4513C34.0686 23.6632 33.7089 23.8462 33.4519 24ZM63.5073 18.8205L52.1511 3.64103V16.5128C52.1511 17.265 52.6821 17.641 53.744 17.641H54.7204V18.4103H48.5541V17.641H49.3763C50.4382 17.641 50.9692 17.265 50.9692 16.5128V2.35898C50.9692 1.60684 50.4382 1.23077 49.3763 1.23077H48.5541V0.461539H52.6136L63.199 14.6667V2.35898C63.199 1.60684 62.6851 1.23077 61.6574 1.23077H60.7839V0.461539H66.9501V1.23077H65.9738C64.9118 1.23077 64.3808 1.60684 64.3808 2.35898V18.3077C64.1924 18.3077 63.992 18.3897 63.7796 18.5538C63.5638 18.7145 63.473 18.8034 63.5073 18.8205ZM85.9113 17.6923V18.4103H79.334V17.6923H80.1562C80.9098 17.6923 81.2867 17.453 81.2867 16.9744C81.2867 16.906 81.201 16.6154 81.0297 16.1026L79.2826 11.5385H72.8081L71.1123 15.8974C71.1123 15.9316 71.0524 16.1402 70.9325 16.5231C70.8126 16.9094 70.7526 17.1744 70.7526 17.3179C70.7526 17.465 70.8468 17.5641 71.0353 17.6154C71.2237 17.6667 71.6262 17.6923 72.2428 17.6923H72.6539V18.4103H67.6181V17.6923H67.9778C68.5431 17.6923 68.9541 17.5932 69.2111 17.3949C69.468 17.2 69.6907 16.8718 69.8791 16.4103L75.5315 1.69231C75.6171 1.67522 75.7713 1.55043 75.9939 1.31795C76.2166 1.08889 76.4222 0.849574 76.6106 0.600001C76.799 0.353847 76.8932 0.213676 76.8932 0.179488C76.8932 0.1453 76.8846 0.119659 76.8675 0.102564L77.2272 0L83.5476 16.5128C83.736 16.906 83.9279 17.2 84.1231 17.3949C84.3218 17.5932 84.6096 17.6923 84.9864 17.6923H85.9113ZM73.2191 10.4615H78.8202L76.0453 3.12821L73.2191 10.4615ZM93.7219 17.6923V18.4103H87.196V17.6923H88.0695C88.5834 17.6923 88.9174 17.5897 89.0715 17.3846C89.2257 17.1795 89.3028 16.8889 89.3028 16.5128V2.35898C89.3028 1.98291 89.2257 1.69231 89.0715 1.48718C88.9174 1.28205 88.5834 1.17949 88.0695 1.17949H87.196V0.461539H93.7219V1.17949H92.7456C92.2318 1.17949 91.8977 1.28205 91.7436 1.48718C91.5894 1.69231 91.5124 1.98291 91.5124 2.35898V16.5128C91.5124 16.8889 91.5894 17.1795 91.7436 17.3846C91.8977 17.5897 92.2318 17.6923 92.7456 17.6923H93.7219ZM110.417 14.8718L109.544 18.4103H95.7722V17.641H96.6458C97.1596 17.641 97.4936 17.547 97.6478 17.359C97.8019 17.1709 97.879 16.8889 97.879 16.5128V2.35898C97.879 1.98291 97.8019 1.70086 97.6478 1.51282C97.4936 1.32479 97.1596 1.23077 96.6458 1.23077H95.7722V0.461539H102.298V1.23077H101.322C100.808 1.23077 100.474 1.32479 100.32 1.51282C100.166 1.70086 100.089 1.98291 100.089 2.35898V16.1538C100.089 16.5299 100.166 16.8205 100.32 17.0256C100.474 17.2308 100.808 17.3333 101.322 17.3333H106.203C107.111 17.3333 107.913 17.0376 108.608 16.4462C109.3 15.8581 109.646 15.2821 109.646 14.7179L110.417 14.8718ZM118.33 17.6923V18.4103H111.804V17.6923H112.678C113.192 17.6923 113.526 17.5897 113.68 17.3846C113.834 17.1795 113.911 16.8889 113.911 16.5128V2.35898C113.911 1.98291 113.834 1.69231 113.68 1.48718C113.526 1.28205 113.192 1.17949 112.678 1.17949H111.804V0.461539H118.33V1.17949H117.354C116.84 1.17949 116.506 1.28205 116.352 1.48718C116.198 1.69231 116.121 1.98291 116.121 2.35898V16.5128C116.121 16.8889 116.198 17.1795 116.352 17.3846C116.506 17.5897 116.84 17.6923 117.354 17.6923H118.33ZM135.339 18.8205L123.983 3.64103V16.5128C123.983 17.265 124.514 17.641 125.576 17.641H126.552V18.4103H120.386V17.641H121.208C122.27 17.641 122.801 17.265 122.801 16.5128V2.35898C122.801 1.60684 122.27 1.23077 121.208 1.23077H120.386V0.461539H124.445L135.031 14.6667V2.35898C135.031 1.60684 134.517 1.23077 133.489 1.23077H132.616V0.461539H138.782V1.23077H137.806C136.744 1.23077 136.213 1.60684 136.213 2.35898V18.3077C136.024 18.3077 135.822 18.3897 135.606 18.5538C135.394 18.7145 135.305 18.8034 135.339 18.8205ZM154.146 15.4872V12.3077C154.146 12.0684 154.129 11.8803 154.095 11.7436C154.06 11.6068 153.949 11.4786 153.761 11.359C153.572 11.2393 153.288 11.1795 152.908 11.1795H151.988V10.4615H158V11.1795H157.589C157.075 11.1795 156.741 11.2769 156.587 11.4718C156.433 11.6701 156.356 11.9487 156.356 12.3077V14.9231C153.886 17.5897 151.195 18.9231 148.283 18.9231C146.334 18.9231 144.597 18.0598 143.073 16.3333C141.548 14.6068 140.786 12.6667 140.786 10.5128C140.786 7.7265 141.817 5.27692 143.879 3.1641C145.945 1.0547 148.355 0 151.109 0C152.137 0 153.526 0.290599 155.277 0.871795L155.431 4.41026H154.506C154.506 2.8718 152.998 2.10257 149.984 2.10257C147.908 2.10257 146.147 2.67009 144.701 3.80513C143.256 4.94359 142.533 6.5641 142.533 8.66667C142.533 9.84615 142.716 10.9231 143.083 11.8974C143.453 12.8718 143.92 13.6667 144.486 14.2821C145.047 14.8974 145.681 15.4188 146.387 15.8462C147.689 16.5983 148.948 16.9744 150.164 16.9744C151.38 16.9744 152.707 16.4786 154.146 15.4872Z" fill="#FCF5F4"/>
</g>
</svg>
